<svg xmlns="http://www.w3.org/2000/svg" viewBox="0 0 36 36" height="160" width="160"><path d="M33 21c0 8.284-6.716 15-15 15-8.284 0-15-6.716-15-15C3 12.716 9.716 6 18 6c8.284 0 15 6.716 15 15z" fill="#FFCC4D"></path><path d="M32 6.13c-1.19 1.441-3.182 1.951-5.076 2.121C26.606 6.713 25.241 1 22.5 1c-2.403 0-3.269 1.091-4.5 1.091C16.769 2.091 15.903 1 13.5 1c-2.741 0-4.106 5.713-4.424 7.251C7.182 8.081 5.19 7.57 4 6.13 1.847 3.524-1 5.444.442 8.304 2.72 12.821 8.23 16 18 16c9.769 0 15.279-3.179 17.558-7.696C37 5.444 34.153 3.524 32 6.13z" fill="#664500"></path><path d="M21.5 3c-1.869 0-2.543.964-3.5.964-.957 0-1.631-.964-3.5-.964C12.037 3 11 9.75 11 9.75S12.282 12 18 12c5.719 0 7-2.25 7-2.25S23.963 3 21.5 3z" fill="#825D0E"></path><path d="M11 6s2.074 2 7 2c4.927 0 7-2 7-2v2s-2.222 2-7 2c-4.778 0-7-2-7-2V6z" fill="#664500"></path><path d="M12 17c1.38 0 2.5-1.567 2.5-3.5S13.38 10 12 10s-2.5 1.567-2.5 3.5S10.62 17 12 17zM24 17c1.38 0 2.5-1.567 2.5-3.5S25.38 10 24 10s-2.5 1.567-2.5 3.5S22.62 17 24 17z" fill="#664500"></path><path d="M18 22c-3.623 0-6.027-.422-9-1-.679-.131-2 0-2 2 0 4 4.595 9 11 9 6.404 0 11-5 11-9 0-2-1.321-2.132-2-2-2.973.578-5.377 1-9 1z" fill="#664500"></path><path d="M9 23s3 1 9 1 9-1 9-1-2 4-9 4-9-4-9-4z" fill="#fff"></path><path d="M22.468 27.371s.997-.721.165-1.614c-.832-.893-1.621.052-1.621.052l-4.148 3.866c-.069-.205-.459-.743-.55-.947l5.755-5.366s.998-.721.164-1.615c-.832-.892-1.622.051-1.622.051l-5.413 5.046c-.125-.158-.461-.54-.594-.698l6.276-5.85s.997-.722.164-1.614c-.832-.893-1.621.051-1.621.051l-6.278 5.848c-.15-.145-.612-.609-.764-.746l5.866-5.468s.996-.722.164-1.614c-.833-.893-1.621.051-1.621.051l-6.203 5.781-.497.464-.22.207s-.538.744-1.087.179l1.842-4.158s.58-1.074-.493-1.655c-1.075-.581-1.655.493-1.655.493l-1.668 2.758c-.663 1.093-1.349 2.178-2.159 3.167a7.328 7.328 0 0010.673 9.993l.447-.418 6.698-6.244z" fill="#F4900C"></path></svg>